/* XPM */
static char *_1cceba461a74ada96829ca4bac3fdc82JPEMp9kaa9ZPTou[] = {
/* columns rows colors chars-per-pixel */
"64 64 228 2 ",
"   c #000000",
".  c #0B0302",
"X  c #0B0908",
"o  c #130504",
"O  c #1C0504",
"+  c #140E0B",
"@  c #1B0908",
"#  c #16110E",
"$  c #1A120F",
"%  c #151311",
"&  c #1A1512",
"*  c #1D1915",
"=  c #1F1C19",
"-  c #230806",
";  c #290907",
":  c #230B09",
">  c #360C09",
",  c #23140E",
"<  c #2A150F",
"1  c #2E180F",
"2  c #33130D",
"3  c #39130D",
"4  c #30180F",
"5  c #241610",
"6  c #2B1610",
"7  c #241914",
"8  c #2C1A13",
"9  c #221E1A",
"0  c #321611",
"q  c #3F1512",
"w  c #341C14",
"e  c #3B1D13",
"r  c #25211D",
"t  c #29231F",
"y  c #362017",
"u  c #3B2116",
"i  c #352219",
"p  c #3C241A",
"a  c #3F281E",
"s  c #2B2622",
"d  c #2A2725",
"f  c #2E2824",
"g  c #312722",
"h  c #322A25",
"j  c #3B2A22",
"k  c #352E29",
"l  c #382F2A",
"z  c #33302E",
"x  c #39312B",
"c  c #3B3633",
"v  c #3F3B38",
"b  c #4C160E",
"n  c #441E13",
"m  c #451915",
"M  c #4A1C13",
"N  c #541B14",
"B  c #432216",
"V  c #4B2316",
"C  c #44251A",
"Z  c #4C251B",
"A  c #44291D",
"S  c #4B2A1C",
"D  c #53241B",
"F  c #59241B",
"G  c #532A1C",
"H  c #592B1C",
"J  c #55301F",
"K  c #5C301E",
"L  c #64321C",
"P  c #452D22",
"I  c #4C2E22",
"U  c #532D22",
"Y  c #5E2E22",
"T  c #4A3125",
"R  c #483429",
"E  c #4D352A",
"W  c #533325",
"Q  c #5A3426",
"!  c #533628",
"~  c #553A2D",
"^  c #5B392A",
"/  c #443C37",
"(  c #5D3F31",
")  c #653525",
"_  c #6B3B25",
"`  c #653D2B",
"'  c #703B25",
"]  c #46423E",
"[  c #5D4437",
"{  c #6B422D",
"}  c #75432B",
"|  c #7A462C",
" . c #654334",
".. c #6B4433",
"X. c #664738",
"o. c #674C3D",
"O. c #6B4B3C",
"+. c #754A34",
"@. c #79513D",
"#. c #4D4744",
"$. c #504842",
"%. c #544D4A",
"&. c #59514C",
"*. c #5C5652",
"=. c #5E5854",
"-. c #725242",
";. c #765948",
":. c #70584C",
">. c #655B55",
",. c #68605A",
"<. c #776556",
"1. c #766E6A",
"2. c #843E2B",
"3. c #963C2E",
"4. c #84482D",
"5. c #844C33",
"6. c #874E37",
"7. c #88543A",
"8. c #8C543A",
"9. c #92573B",
"0. c #94583B",
"q. c #98593A",
"w. c #855B45",
"e. c #8B5C43",
"r. c #965E41",
"t. c #B4554B",
"y. c #9C6345",
"u. c #856856",
"i. c #926D55",
"p. c #A96445",
"a. c #A26A4C",
"s. c #AB6C4C",
"d. c #B56B4A",
"f. c #B16D52",
"g. c #A97557",
"h. c #B47453",
"j. c #B77958",
"k. c #BB7C5B",
"l. c #846E60",
"z. c #897367",
"x. c #967764",
"c. c #A97B64",
"v. c #C37D5A",
"b. c #9D806A",
"n. c #87817C",
"m. c #9C8377",
"M. c #AD8268",
"N. c #B48163",
"B. c #BD8161",
"V. c #BA8769",
"C. c #A78774",
"Z. c #B78C76",
"A. c #BD937A",
"S. c #C1815E",
"D. c #C48563",
"F. c #C98865",
"G. c #C68C6B",
"H. c #CB8C6A",
"J. c #D28E6C",
"K. c #CC916D",
"L. c #D4926E",
"P. c #C48F70",
"I. c #CB9676",
"U. c #D29672",
"Y. c #D39974",
"T. c #DA9B76",
"R. c #D6957A",
"E. c #D49D7A",
"W. c #DC9E7B",
"Q. c #DDA37C",
"!. c #E2A57D",
"~. c #E4A87F",
"^. c #9F978F",
"/. c #A99286",
"(. c #BB9A89",
"). c #B9A598",
"_. c #D09F81",
"`. c #DCA682",
"'. c #DEA983",
"]. c #DAA588",
"[. c #D0AB8C",
"{. c #DDAB8B",
"}. c #CBB49C",
"|. c #DFB69B",
" X c #E3A681",
".X c #E3AB84",
"XX c #EAAE87",
"oX c #E5AF89",
"OX c #E6B28A",
"+X c #EBB38A",
"@X c #ECB38B",
"#X c #F1B58D",
"$X c #F1B98D",
"%X c #E8B795",
"&X c #EDBA93",
"*X c #E4BA9C",
"=X c #F1B792",
"-X c #F3BC94",
";X c #F2BE9A",
":X c #C9B6A9",
">X c #E5BCA4",
",X c #EEC09B",
"<X c #F5C399",
"1X c #F5C39C",
"2X c #F9C59D",
"3X c #D8C7AF",
"4X c #DFC7B8",
"5X c #E9C6A9",
"6X c #F5C7A2",
"7X c #F6C9A3",
"8X c #F6CAA5",
"9X c #F9CAA4",
"0X c #F9CDAA",
"qX c #F7D0AD",
"wX c #FBD2AD",
"eX c #EDCCB7",
"rX c #F5CFB1",
"tX c #F3D3B7",
"yX c #FBD4B3",
"uX c #FBD9B6",
"iX c #FBD7B9",
"pX c #FBDBBC",
"aX c #FDE0BF",
"sX c #ECD3C2",
"dX c #FBDEC2",
"fX c #F3DAC9",
"gX c #FBE2C4",
"hX c #FCE6CD",
/* pixels */
"                                                                                                                                ",
"                                                                                                                                ",
"                                                                                                                                ",
"                                                                                                                                ",
"                                                    o O - : 2 0 < - o                                                           ",
"                                                  O : , 8 p P R R y 2 -                                                         ",
"                                              . - 5 i R P P y ~ ;.[ A 3 ; .                                                     ",
"                                              @ , 8 E ( p ~ w S X.o.~ w 3 > .                                                   ",
"                                            O < 6 p [ ^ A @.y < C  .-.E w 3 ;                                                   ",
"                                          . 0 8 8 I O.I A w.A , 8 S X.o.T w 3 ;                                                 ",
"                                          - 0 6 y ~ ..B ! e.y < 5 6 I O.o.P w M -                                               ",
"                                        . > 6 8 T -...e W ;.w < e w w ( -.o.j e b .                                             ",
"                                        ; 0 y P ( ! C e J +.A 1 e Z e U O.;.X.w M >                                             ",
"                                      . > w p P P C _ 9.a.N.N.+.B Q Q W X.o.-.! B b o                                           ",
"                                      - 2 8 w p S 8.F..X;XrXiX|.w.I O... .X.X.! C M 3                                           ",
"                                    . 3 6 6 8 e } j.Q.;X0XdXhXhX*X` ^ -.( E P C u B N -                                         ",
"                                    O 3 < < < B 8.D.Q.1XyXpXgXhXiXg.Z -.+.p y w e e Z N o                                       ",
"                                    > 3 8 1 , S y.D.T.&X0XyXpXgXdX{._ ^ w.S 8 w w w w M M .                                     ",
"                                  . 3 w w < , C r.D.Q.@X7XyXuXgXgXuXa.B O.` w 8 w e e e F -                                     ",
"                                  - M e 1 , $ y 7.k.Q.&X2X0X0XwXqX[.-.8 C ` Z , 8 e S S Y 0                                     ",
"                                  > M w , + + 8 S ! O.e.V.OX2X@Xg. .T 6 4 B Y w , 6 e C G C                                     ",
"                                  ; M 6 & # + 8 A A i E +.g.7X%XV.u.~ R A C e e , $ < w u e 3 .                                 ",
"                                  . 2 6 w 8 # w A j [ :.M.y.*XqX{.V.x.w.| 9.C 6 w , , 1 w y U O                                 ",
"                                    2 w p p & w | { @.c.E.h.{.yXrX]._.{.k.q.7.w 6 5 w y w S n .                                 ",
"                                    V W C p 8 , 5.D.N.I..Xk.`.iXwXgXdXiX%Xs.8.P 6 5 w p y S 2                                   ",
"                                  . H +.W p 8 + K v.-X8XoXh.`.pX7XiXdXyX;XD.9.T p 6 6 6 6 C e o . .                             ",
"                                  o Z ^ I A 7 + 6 9.W.;XOXs.`.gX1X8XyX0X@XD.a.! y 5 5 6 6 a P Z M N m .                         ",
"                            . - ; 0 C I I p & # + K k..XoX8.r.P.P.rXuX6X XK.j.T 6 , 5 , < p I P q > @                           ",
"                              . 3 S p p p 8 & & + w 5.F.Q.a.7.N.5XdXyX&XQ.E.g.p w 6 8 8 w C Z @                                 ",
"                              . 2 , , 6 , 8 7 7 # , G r.S.H.U.].R.R.E.'.Q.Y.@.8 y 8 w u S U F -                                 ",
"                                @ w y 6 , 8 8 8 5 + e } 0.2.3.t.t.f.W.Q.Y.g.p w e 0 C p e D :                                   ",
"                                  B ! w 6 y w 6 8 # , G | 4.3.t.f.J. X'.P.! 8 w B C S p e m                                     ",
"                                  Z ` w p p w 5 w & + w K | q.k.E.%X&X{.a.e 6 w y I I w C Z                                     ",
"                                  I ..w A A w 8 p 7 + 6 n _ s. X6X6X.XD.h.Z 6 w w w y w C U .                                   ",
"                                @ W ^ y P P A P ! 6 , e n n ' s.F.k.h.Y.G._ w e p w w y u H 6                                   ",
"                          ; ; 2 I A u p I I A ^ ! w Z H L V n F _ 9.G.&XU.} e e e w w 8 C G D o                                 ",
"                          o ; C C w w e u w e D Y 5.8.4.9.4.} | y.K.;X9XQ.9.H B u w 8 w A U ) D - .                             ",
"                          . 0 P 6 0 w 6 < e H 7.D.H.k.s.k.k.S.H.`.1XyXwX&XG.5.K Z y 6 8 p C U ..) F o                           ",
"                          - F 6.e.7.+.` K 5.k. XOX XY.L.T.Q.oX1XyXpXgXyX2X&XF.6.L B w y P j w p U Q 6 o . .     + &             ",
"                      @ ) p.F.!.+X@X@X&X{.Y.!..X X.XW.T.T..X1XyXgXgXpX0X=X.XW.v.0.) 8 5 & & * 9 g t 5 & + # + # + .             ",
"                    . ' v.!.+X+XOX+X&X7XuX0X=X@X@X&X;X;X1X0XyXwXwX0X0X0X0X1X-X@X XH.I & & & 9 f h r * k = % # .                 ",
"                    I s.T.<X7X0X9X9X9X9X9X9X-X@X-X9XyXyXyXiXpXyXwX0XyXuXyX0X7X2X=X.X@.* 9 r f k h 9 * s * & +                   ",
"                  & i.j.oX0XpXpXpXuXyX0X1X+X.XXX-X1X6X9X0XyXiXpXpXpXdXdXiX9X2X;X-X{.o.s 9 t h k f 9 & & % % & X                 ",
"                  / Z.k.OXyXdXpXpXuXwX2X@X.X!..XXXXX+X@X-X9XyXpXpXdXdXpXyX6X-X#XXXi.s t s r r s f r * * * * = *                 ",
"                  &.A.k..X0XuXuXyXwX2X@X.X!..XOX+X+XXX$X-X<X9X0XyXyXyXyX0X1X$X+Xc.g 9 * f s 9 & & 9 9 9 9 9 r *                 ",
"                  >.A.S.Q.1XwXwXwX2X@X!.~.+X=X-X-X1X2X6X7X6X7X9X0XwX0X7X2X1X-XI.E r r 9 s s r r % # # & * $.%.                  ",
"                  <.V.F.Q.&X0X9X2X@X!.W.oX-X2X2X2X2X7XwXyXyXuXuXuXuXuXyXwXwX{.[ g t s r t t t c r * ! +.{ (.n.                  ",
"                  z.V.K.`.&X7X2XOXW.U.W.OX-X1X-X-X<X1X2X9XyXuXpXgXgXgXgXpX5X;.h h h h f t r 9 ] c r i.W.K.5X1.                  ",
"                . m.B.U.'.&X1X&XU.D.H.T.!.XX@X@X$X$X$X$X-X2X9XyXgXgXgXuXqXx.g t r k k k s r * x &.x c..X{.tX1.                  ",
"                X m.B.Y.'.OX&XoXB.j.F.F.J.Q.OX&X-X-X-X-X-X-X2XwXpXgXaXqXb.l s s r h x l s r * s =.%.c.{.*XfX1.                  ",
"                % /.k.Y.'.OX&XQ.s.p.r.` [ o.:.;.<.<.u.u.i.x.M.A.}.3X}.<.h s s f s h x l f r & r *.>.c.E.*XfX>.                  ",
"                = (.j.Y. XOX&XQ.0._ 8 * * 9 9 r t t s s r t t g x / x s s s s f t f l k s r & 9 *.>.g.I.|.sX%.                  ",
"                d ).h.U. XOX&X X5.7 & 9 r r r t s s s s s s s s s s f f f f f f t h l k s r % 9 =.<.a.G.>X4Xk                   ",
"                z (.h.U. XOX<XOX+.# & 9 r r t s s s s s s f s s s f f h f f f f r h x k s t & = =.u.j.U.>X:X%                   ",
"                c (.h.Y..XOX1X$X{ # & 9 r r t s s s s s f s s s s f f h f f f f r k x h s s * = &.M.W.E.5X/..                   ",
"                ] (.h.Y..XOX1X@X+.$ % * 9 r t s s s s s s s s s f f f f f f f f r k k f s t 9 d >.E.oX`.eX1.                    ",
"                #.A.h.T.oX&X1XXX6.$ % & * r r s s f s s s s s s s f f f f f f f 9 k k s t r t k u.OXoX`.eX#.                    ",
"                %.Z.d.T.oX&X1X.X+.$ & & * 9 9 r s s s s s s s s s s s f f s f s 9 k k s r r s c l.oXoX{.4Xf                     ",
"                #.Z.d.Y.OX;X7X!.} & & & & * 9 9 r r s s t s s s s s s s s s s r 9 k k r r r r v z. XoXoX:X%                     ",
"                #.Z.d.L.OX,X7X!.{ & & & & & * = 9 r r r r r r t t s s s s s s 9 r k h r r 9 r v z.'.oX%X).X                     ",
"                / Z.d.L.oX,X6X!.` $ % & & & * * 9 9 r r r r r r r r r r t s s * t h s r r 9 9 / x. XOX*X^.                      ",
"                k Z.s.J.oX,X6X X` $ & & & & & * * = 9 9 9 9 9 r r r r r t s r & s s 9 r 9 = = / b.OXOX*Xn.                      ",
"                = C.p.J. X&X6XoX..& & & & & & & * * = 9 9 9 9 r r r r r t s 9 * s 9 = 9 9 * 9 ] C.@X@X*X1.                      ",
"                % m.p.H. X&X6XOX+.& & & & & & * * = 9 9 9 r r r r r t s s s * 9 t % = r 9 * 9 #.Z.&X&X*X,.                      "
};