/* XPM */
static char *_6f26886439342cdedd58cce2852c02aGwsCxQWkiusLcD1t[] = {
/* columns rows colors chars-per-pixel */
"64 64 215 2 ",
"   c None",
".  c #020202",
"X  c #0C0B0B",
"o  c #120E0D",
"O  c #14110E",
"+  c #1A120E",
"@  c #0F0F10",
"#  c #110F10",
"$  c #0F1010",
"%  c #141312",
"&  c #1B1513",
"*  c #1D1815",
"=  c #1C1A19",
"-  c #23140E",
";  c #2B140F",
":  c #211712",
">  c #221A15",
",  c #2B1C14",
"<  c #241D19",
"1  c #291F1A",
"2  c #2A1710",
"3  c #341B13",
"4  c #31190E",
"5  c #27211C",
"6  c #2B221C",
"7  c #32231B",
"8  c #3D241B",
"9  c #3A2215",
"0  c #242423",
"q  c #292522",
"w  c #2A2929",
"e  c #2A2826",
"r  c #322B25",
"t  c #3A2B22",
"y  c #342C29",
"u  c #323232",
"i  c #3D3C3B",
"p  c #3C3733",
"a  c #3F3028",
"s  c #422215",
"d  c #40251B",
"f  c #4B2B1C",
"g  c #48281C",
"h  c #522B1B",
"j  c #4B2F22",
"k  c #452E23",
"l  c #45342A",
"z  c #4A3529",
"x  c #5B3422",
"c  c #5D3C2C",
"v  c #563728",
"b  c #453B35",
"n  c #643B29",
"m  c #683A24",
"M  c #45413E",
"N  c #4B433D",
"B  c #5D4132",
"V  c #53443B",
"C  c #6B442E",
"Z  c #7A462D",
"A  c #6D4634",
"S  c #6A4837",
"D  c #744A34",
"F  c #7A4B34",
"G  c #774535",
"H  c #78513C",
"J  c #444444",
"K  c #494746",
"L  c #554A44",
"P  c #59534D",
"I  c #504F50",
"U  c #555454",
"Y  c #5C5B5B",
"T  c #5C5754",
"R  c #634D41",
"E  c #685349",
"W  c #735345",
"Q  c #735A4D",
"!  c #7B5A49",
"~  c #665B56",
"^  c #6F655D",
"/  c #666564",
"(  c #6C6561",
")  c #6B6A6A",
"_  c #726E6B",
"`  c #706963",
"'  c #79746F",
"]  c #747372",
"[  c #7D7C7D",
"{  c #7C7572",
"}  c #854C31",
"|  c #89553C",
" . c #9A5B3D",
".. c #92563B",
"X. c #814A2D",
"o. c #845C45",
"O. c #825C4C",
"+. c #8A5A45",
"@. c #945D42",
"#. c #995A47",
"$. c #8D6047",
"%. c #89614A",
"&. c #9A644B",
"*. c #826452",
"=. c #8C695A",
"-. c #936C52",
";. c #9A6A58",
":. c #94725C",
">. c #9C735B",
",. c #9D785F",
"<. c #AA6B4C",
"1. c #A36A4E",
"2. c #A86D50",
"3. c #A2745A",
"4. c #A87357",
"5. c #B27252",
"6. c #B47A5C",
"7. c #BC7E5E",
"8. c #B77757",
"9. c #887568",
"0. c #917563",
"q. c #9B7960",
"w. c #877E78",
"e. c #A87D63",
"r. c #A67868",
"t. c #B57E63",
"y. c #B4746B",
"u. c #B47869",
"i. c #BF805F",
"p. c #86807D",
"a. c #978275",
"s. c #AB856C",
"d. c #A38069",
"f. c #B48166",
"g. c #BD8465",
"h. c #B5896E",
"j. c #BE8A6D",
"k. c #B2856B",
"l. c #A78975",
"z. c #B48C73",
"x. c #B98C75",
"c. c #B4937D",
"v. c #BF9277",
"b. c #C28968",
"n. c #C58E71",
"m. c #C49175",
"M. c #CC9474",
"N. c #C3967B",
"B. c #C9977A",
"V. c #D39D7D",
"C. c #8A8685",
"Z. c #8D8B8A",
"A. c #898786",
"S. c #948B86",
"D. c #969696",
"F. c #9B9996",
"G. c #A59488",
"H. c #B89986",
"J. c #A39992",
"K. c #B29E92",
"L. c #BFA18D",
"P. c #B7A698",
"I. c #A19FA1",
"U. c #AAAAAA",
"Y. c #A6A3A1",
"T. c #B4ACA6",
"R. c #BCBBBA",
"E. c #BAB7B5",
"W. c #BAB1AC",
"Q. c #C79E84",
"!. c #D29F80",
"~. c #C4A288",
"^. c #CCA58A",
"/. c #CAA185",
"(. c #D4A384",
"). c #D5AA8C",
"_. c #DBAC8C",
"`. c #D7A788",
"'. c #C3A793",
"]. c #D5AB91",
"[. c #DCAD92",
"{. c #D1A791",
"}. c #CFB39E",
"|. c #D5B195",
" X c #DDB193",
".X c #DCB49A",
"XX c #DEB89E",
"oX c #D3B29F",
"OX c #E1B59A",
"+X c #E2B99D",
"@X c #D5BBAB",
"#X c #C2BBB5",
"$X c #C1B0A3",
"%X c #E3BCA3",
"&X c #E5BFA8",
"*X c #DBC2B3",
"=X c #E5C0A7",
"-X c #E6C2AA",
";X c #E9C3AD",
":X c #EAC6B1",
">X c #EAC9B4",
",X c #EDCEBA",
"<X c #E4C9B7",
"1X c #F0CFBC",
"2X c #EDD1BE",
"3X c #CBC9CA",
"4X c #C7C6C6",
"5X c #D7D6D5",
"6X c #D8D0CB",
"7X c #ECD3C2",
"8X c #F1DBCC",
"9X c #F0D7C7",
"0X c #E1DFDC",
"qX c #F4E2D5",
"wX c #E9E7E5",
/* pixels */
"                                                                                                                                ",
"                                                                                                                                ",
"                                                                                                                                ",
"                                                                                                                                ",
"                                                          * % o & & %                                                           ",
"                                                    e < q 5 & & < : * < < &                                                     ",
"                                                * < * & O + : : : 1 : 1 < * =                                                   ",
"                                              = < : + o X X O + & < & : 6 6 : &                                                 ",
"                                            = & & O o o X X X o o & q & 6 < < > =                                               ",
"                                          % % < r > & O O X X X o o & O * < < < & %                                             ",
"                                          O + * : & O & O o o O & o o o & > < < : :                                             ",
"                                          o < & & : & < & + o + & + & o O : & & < 6 >                                           ",
"                                        % O 6 6 & < & & + + : : + o : > + O & & & < &                                           ",
"                                        o O & : > & : > < & 1 , O o : * + o & 5 & & & =                                         ",
"                                      % o O o O & & : * > & & : O O + o O & & & & < 6 <                                         ",
"                                      % X O * & O O + + , , , + o O O O o + < < : + : :                                         ",
"                                      % o O & & + - 3 g A F x 9 , : + o + - : - , & : &                                         ",
"                                      O o o O , f Z @.1.t.6.@.F S B 8 7 k c A n f , < & =                                       ",
"                                      O o X O , m <.8.b.(.).v.s.d.l.:.r.z.z.b.t.&.x , & =                                       ",
"                                      = O X o - x <.5.b.V.OX2X7X<X*X<X7X2X=X_.`.M.$., & =                                       ",
"                                      q & o o + h  .5.i.M.[.2XqXqX8XqXqX8X-X[.`.`.3., &                                         ",
"                                      r * o O + s } <.7.M.`.&X,X,X,X2X2X:X.X_.`.).>., *                                         ",
"                                      r < & 5 t f X.<.7.M.`. X%X-X-X-X%XOX X_._.).:.7 *                                         ",
"                                    , 7 : & 6 E x Z 5.g.M.[.&X,X,X2X2X:X&X+X X_.].'.V :                                         ",
"                                    3 , 1 + t W h X.8.g.M..X,X8X8X7X8X9X,X=X+X X|.@XL z                                         ",
"                                    d 2 6 * a Q f x D &.f.[.;X,X,X>X,X,X>X%X^.h.h.L.R =.                                        ",
"                                      8 - : b Q l , g j j ! z.].+X+X]./.z.*.S c c 0.Q                                           ",
"                                      g ; , ~ W j 8 f v j 3 d A N.).;.n 8 d S W :.l.Q                                           ",
"                                      f ; y a.H n s n O.r.o.n h z.:Xe.F =.W =.=.c.H.*.                                          ",
"                                      v 3 b G.+.2.| F 1.4.f.f.Z k.,X/.m.t.x.v.^.XX'.l.                                          ",
"                                        s L T.+.7.n.n.Q.{.XXB.@.f.;X`..XN.j.N.|.XXoX                                            ",
"                                          ~ #XO.<.M.[.&X:X&Xm. .t.:X`.=X7X;X%XOXXX@X                                            ",
"                                            #X*...n.[.%X&X[.6. .t.:X[.[.1X>X%X X.X$X                                            ",
"                                            R.9.Z 6.V. XOXm.....j.>XXX(.-X;X%X X.X                                              ",
"                                            R.S.x @.g.(.[.t.&.2.j.,X%X[..X%X.X.X}.                                              ",
"                                            E.J.B F <.B.[.&.n @.n.,X.X%X&XOX X|.'.                                              ",
"                                            U.J.R D &.j.h.$.9 4 o.Q.N.].%X.X).~.G.                                              ",
"                                            Y.T.E C @.3.F D C 8 3 H e.v.N.Q.^.c.9.                                              ",
"                                            p.T.9.B o.-.c f F +.O.>.3.$.o.z.Q.l.S.                                              ",
"                                            ( G.w.V S e.3.n G #.y.y.y.z.,.>.,.K.4X                                              ",
"                                          ] { L ^ V z o.3.D G ;.y.y.u.N.z.-.0.6XwX~ O                                           ",
"                                        X _ S.y < b l C -.-.S c c A ;.z.s.q.P.wXwX_ * %                                         ",
"                                      X X P ^ N 5 : 7 k ! s.z.c.H.H.~.z.d.a.6XwX0XY * * & %                                     ",
"                                    X X O p T P K q & , c o.:.c.H.H.l.:.0.#X0X5X3Xb & & * & & % %                               ",
"                                  o o o % M ( { _ T r & 6 z B ! %.*.*.9.W.5X5X5XY.q & & & & & & & % % %                         ",
"                              o o o # # & T { p.C.C.` p * * < t l E S.R.3X3X4X4X] * * & & & & & % % % % % % % % X               ",
"                        $ % % o o # # % % / C.A.Z.D.F.Z.( y p b M w.R.R.R.R.R.E.U & * & & % % % % % % % % % % % % % X           ",
"                    @ % % % % o # # % % % U Z.Z.Z.D.Y.F.I < q q < y p.U.U.U.U.I.i & & & % % % % % % % % % % % % % % % X X X     ",
"                  o O O % % X X o X % % % i A.A.A.Z.A.M % < 5 = * & q ) D.D.D.A.e % % % % % % % % % % % % % # # X X X X X X X   ",
"              X X O o O o X X X X X O % O w ] [ [ [ / 0 o & 5 = % q U K Y [ C._ = o O O O O # o # o o X X X X X X X X X X X X   ",
"            X X X X o X X X X X X X X o X = Y ) ) ) ) K & X * = O i ] / U U ) U % X o o X X X X X X X X X X X X X X X X X X X   ",
"        X X X X X X X X X X X X X X X X X o J U U U Y U w O o % X i Y Y U I U i X X X X X X X X X X X X X X X X X X X X . . X . ",
"      . X X X X X X X X X X X X X X X X X X w K K J K K i = X % X u K K J J J w X X X X X X X X @ % X X X . . . X X . . . . . . ",
"      . . . . . X . X X X X X X X X X X X X = u u u u u u = X X X e u u u u u = X X X X . X . . X . . . . . . . . . . . . . . . ",
"    . . . . . . . . . . . . . . X X . . . . X 0 e 0 e e e = X X X % 0 0 0 0 0 X . . . . . . . . . . . . . . . . . . . . . . . . ",
"    . . . . . . . . . . . . . . . . . . . . . % = % = = = % X . . X % = % % % X . . . . . . . . . . . . . . . . . . . . . . . . ",
"    . . . . . . . . . . . . . . . . . . . . . X X X X X X X . . . . X X X X X . . . . . . . . . . . . . . . . . . . . . . . . . ",
"    . . . . . . . . . . . . . . . . . . . . . . X X X X X . . . . . . X . . . . . . . . . . . . . . . . . . . . . . . . . . . . ",
"    . . . . . . . . . . . . . . . . . . . . . . . . . . . . . . . . . . . . . . . . . . . . . . . . . . . . . . . . . . . . . . ",
"    . . . . . . . . . . . . . . . . . . . . . . . . . . . . . . . . . . . . . . . . . . . . . . . . . . . . . . . . . . . . . . ",
"    . . . . . . . . . . . . . . . . . . . . . . . . . . . . . . . . . . . . . . . . . . . . . . . . . . . . . . . . . . . . . . ",
"    . . . . . . . . . . . . . . . . . . . . . . . . . . . . . . . . . . . . . . . . . . . . . . . . . . . . . . . . . . . . . . ",
"      . . . . . . . . . . . . . . . . . . . . . . . . . . . . . . . . . . . . . . . . . . . . . . . . . . . . . . . . . . . . . ",
"      . . . . . . . . . . . . . . . . . . . . . . . . . . . . . . . . . . . . . . . . . . . . . . . . . . . . . . . . . . . . . "
};