/* XPM */
static char *_28da90a8c934522b5def464294c796brPuOmERoGDwtoQfG[] = {
/* columns rows colors chars-per-pixel */
"64 64 211 2 ",
"   c #000000",
".  c #080807",
"X  c #0C0C0C",
"o  c #110F0E",
"O  c #14110E",
"+  c #131313",
"@  c #1A1716",
"#  c #171919",
"$  c #1B1C1D",
"%  c #241D1A",
"&  c #281F1B",
"*  c #26221E",
"=  c #1D1E21",
"-  c #1E2020",
";  c #232524",
":  c #2C2725",
">  c #262827",
",  c #272929",
"<  c #2B2D2C",
"1  c #322F2C",
"2  c #2E302F",
"3  c #32332E",
"4  c #3B332D",
"5  c #2C2F32",
"6  c #2E3133",
"7  c #323434",
"8  c #393633",
"9  c #353836",
"0  c #3A3937",
"q  c #33363A",
"w  c #36393C",
"e  c #3B3C3B",
"r  c #3E403E",
"t  c #4F4137",
"y  c #41413E",
"u  c #4B433D",
"i  c #6C4F3B",
"p  c #373A41",
"a  c #3A3D41",
"s  c #3E4143",
"d  c #434442",
"f  c #484645",
"g  c #464945",
"h  c #494A47",
"j  c #4C4D4B",
"k  c #50504E",
"l  c #595249",
"z  c #545452",
"x  c #575857",
"c  c #5A5A57",
"v  c #5D5C5A",
"b  c #644E41",
"n  c #6A5445",
"m  c #64554A",
"M  c #75584A",
"N  c #665B56",
"B  c #5F605C",
"V  c #62625E",
"C  c #6B655B",
"Z  c #776557",
"A  c #7C6354",
"S  c #7B6B5B",
"D  c #656563",
"F  c #6B6964",
"G  c #6C6D6B",
"H  c #716E68",
"J  c #72726E",
"K  c #6F7170",
"L  c #757472",
"P  c #797673",
"I  c #7C7C7A",
"U  c #84634E",
"Y  c #886955",
"T  c #856E5D",
"R  c #936951",
"E  c #86745D",
"W  c #8A725B",
"Q  c #94745E",
"!  c #9B755C",
"~  c #857C6B",
"^  c #8A7868",
"/  c #937361",
"(  c #997764",
")  c #937C63",
"_  c #9D7D65",
"`  c #9E7E68",
"'  c #857F77",
"]  c #A37C63",
"[  c #A47D69",
"{  c #8E856F",
"}  c #8B8774",
"|  c #81817D",
" . c #928475",
".. c #9A8976",
"X. c #938C79",
"o. c #9C927E",
"O. c #A3836B",
"+. c #AA866A",
"@. c #B5896B",
"#. c #B5886E",
"$. c #A58975",
"%. c #A58B74",
"&. c #AC8C73",
"*. c #B38C73",
"=. c #BA8B75",
"-. c #AB9178",
";. c #AD937B",
":. c #B49175",
">. c #BA9475",
",. c #BC9974",
"<. c #B49479",
"1. c #BB957A",
"2. c #BB997A",
"3. c #C39676",
"4. c #CA9577",
"5. c #C19976",
"6. c #CA9975",
"7. c #C4967A",
"8. c #C49B7C",
"9. c #CB9B7A",
"0. c #D29E7C",
"q. c #C5A27E",
"w. c #CBA47D",
"e. c #D3A37C",
"r. c #858483",
"t. c #8A8987",
"y. c #8E8D8B",
"u. c #918F8D",
"i. c #8F918D",
"p. c #9C9383",
"a. c #92918D",
"s. c #9F958D",
"d. c #949392",
"f. c #989795",
"g. c #9B9A96",
"h. c #9C9B99",
"j. c #AB8E80",
"k. c #AC9482",
"l. c #A79789",
"z. c #B89A86",
"x. c #A39D97",
"c. c #B5A288",
"v. c #A5A395",
"b. c #A4A49F",
"n. c #A19FA0",
"m. c #A6A5A3",
"M. c #A9A6A5",
"N. c #ABAAA6",
"B. c #AEACAA",
"V. c #B0ADAC",
"C. c #B4B2AE",
"Z. c #B8B3A9",
"A. c #B6B5B2",
"S. c #B9B7B5",
"D. c #BBB9B5",
"F. c #BDBBB9",
"G. c #C39D81",
"H. c #CC9C82",
"J. c #D59F81",
"K. c #CCA382",
"L. c #CAA688",
"P. c #D4A483",
"I. c #D9A684",
"U. c #D5A984",
"Y. c #D8A78A",
"T. c #D4AA8B",
"R. c #DAAB8A",
"E. c #DDAE8D",
"W. c #DDB08E",
"Q. c #C9A594",
"!. c #DEAE90",
"~. c #DBB193",
"^. c #D9B195",
"/. c #E0AF90",
"(. c #E2B396",
"). c #E2B89C",
"_. c #C9B8AF",
"`. c #C4C3BE",
"'. c #D0C5BC",
"]. c #C6C5C3",
"[. c #CAC7C4",
"{. c #CBCAC5",
"}. c #CCCCC9",
"|. c #D1CECC",
" X c #DAD5C7",
".X c #D3D1CD",
"XX c #D5D4D3",
"oX c #D9D5D4",
"OX c #DCDAD4",
"+X c #DEDCDB",
"@X c #E2DDD2",
"#X c #E2DDDB",
"$X c #E5E2DC",
"%X c #E8E5DB",
"&X c #EDE8DE",
"*X c #E5E5E2",
"=X c #EAE6E3",
"-X c #E9E7E5",
";X c #EDEAE5",
":X c #EEEDEB",
">X c #F1EDE6",
",X c #F2EEEB",
"<X c #EFF0EB",
"1X c #F4F2ED",
"2X c #F8F3EE",
"3X c #F1EFF0",
"4X c #F6F4F2",
"5X c #F8F5F2",
"6X c #F7F8F3",
"7X c #F9F7F8",
"8X c #F9F9F9",
/* pixels */
"                                                    o l O.5.5.5.%.Z 4 X                                                         ",
"                                                  * T 1.6.e.e.9.9.6.=.T 4 X                                                     ",
"                                                4 O.9.0.I.I.I.P.0.0.6.6.:.S %                                                   ",
"                                              1 %.9.0.I.E.E.E.E.R.I.w.6.3.>.S +                                                 ",
"                                            + ^ 8.9.I.E./.!.(.(.W.Y.e.9.8.3.&.u                                                 ",
"                                            u <.3.P.R.E.E.E.W.E.R.U.e.w.8.9.>.^ X                                               ",
"                                          X ^ 1.9.K.P.R.R.I.R.R.E.R.I.9.9.9.3.k.8                                               ",
"                                          ; l.1.9.9.K.Y.R.I.R.E.~.T.1.>.7.9.7.z.C                                               ",
"                                          7 l.:.3.9.9.T.R.P.T.L.;.Q Y ] >.8.3.1. .+                                             ",
"                                          0 l.:.7.8.8.G.8.K.+.U i n / &.1.8.3.1.k.m O                                           ",
"                                          8 x.j.[ ) W M Y K.>.R R Y O.8.K.9.5.:.<.#.n                                           ",
"                                          2 x...T m t M ! 9.9.3.7.L.^.^.T.w.5.:.:.3.[ O                                         ",
"                                          ; s...W A / =.#.9.9.9.P.~.).~.W.U.5.:.-.7.#.@                                         ",
"                                          ; l.%._ *.L.K.@.9.0.4.R.E.!.R.T.K.,.&.<.8.=.%                                         ",
"                                          : p.k.>.K.T.K.@.9.J.4.I.(.(.R.K.w.>.+.<.8.=.&                                         ",
"                                          @ ^ z.8.K.P.P.=.H.Y.4.9.R.(.Y.9.w.<.*.1.L.*.&                                         ",
"                                          . N l.2.8.0.9.O.*.=.! +.H.H.P.9.w.<.:.G.^.1.&                                         ",
"                                            :  .-.:.9.@.A M A ) %.-.;.2.q.K.2.<.O.^ m X                                         ",
"                                            . N -.*.1.&.X.~  .{ { o.p.l.L.L.8.1.Z .                                             ",
"                                              8 ..&.-.X.X.X... .~ X.X.p.c.T.q.2.Z                                               ",
"                                              * ^ ;.o.X.} E ( _ ` ) E ..;.L.8.<.S X                                             ",
"                                              X u ^ o.~ S / *.>.G.G.>.+.>.q.2.*.%.F X                                           ",
"                                                  0 p.~ W &.*.*.1.K.P.P.K.q.:.=.z. XJ .                                         ",
"                                                  + S ) _ &.>.L.T.T.P.H.8.2.:.>._.&XOXz                                         ",
"                                                  . N %.&.*.>.7.1.8.8.*.O.] *.Q.'.@X>X_.;                                       ",
"                                                  e ' ) O.O.:.&.&.O.O.Q Q ] z._.x.%X1X>XI                                       ",
"                                                > v.p.S W Q _ ` ` Q U U Q &._.J H %X:X1XXX7                                     ",
"                                              X a. Xv.C S Y W ! *.U i A l H [.h P %X1X>X5Xx.+ .                                 ",
"                                            . v OX@XZ.j l m n Y ] U b u e h d.d..X&X4X;X>X;XV @ # + X                           ",
"                                        X $ g ].>X&XZ.e 7 0 u M A u 3 6 3 y m.:X;X>X>X>X%X2XD.2 ; , , ; + .                     ",
"                                    X > 9 e i.;X>X>XC.y < , 6 y u 0 e d j c A.>X;X6X1X>X%X;X;XD > < 2 6 6 , # .                 ",
"                                . = 9 e e j {.1X1X1XC.8 < < < k G x j f d y M.=X>X6X5X1X;X&X1Xm.3 < 2 7 6 6 6 , +               ",
"                              # q a e 9 9 r.:X1X1X6XC.0 < , e B.XXM.L N c c F.=X1X8X8X1X1X;X:X+Xz < 6 7 2 6 6 6 2 $ .           ",
"                          X , w a w w 9 h ].1X1X1X1X[.z 5 e u.,X7X3X+Xm.L L oX=X5X8X6X5X1X1X;X1Xu.2 < 2 2 < < < 6 6 , #         ",
"                      . $ q w w q q 9 q L ;X&X1X1X1X$Xf.j h.:X7X7X7X4X;X#XXX=X|.5X6X8X6X1X5X1X>X}.d < < < < < < 7 2 6 9 #       ",
"                      , a a w q q 9 9 r C.1X;X1X5X>X#X=XXX-X4X7X7X7X7X,X,X,X#XC.5X8X6X5X1X5X6X>X:XG , < < < < < < < 6 9 <       ",
"                    + a p w q q q 9 9 B $X>X1X1X5X*X|.,X,X:X3X7X7X7X4X,X,X1X{.x.5X8X8X6X1X1X8X1X1Xb.< < < < < < < < 2 9 e X     ",
"                    < s w w q q q 9 0 f.1X1X1X1X5X|.F.4X,X:X4X4X4X7X4X,X,X4XV.B.5X8X6X5X1X1X6X1X1X.Xg < < < < < < < < 7 e +     ",
"                  X a a w q q q q 9 j .X1X1X1X1X5XM.V.4X,X,X4X1X4X7X4X,X,X,Xh.D.6X6X6X5X5X1X5X6X1X:XJ < < < < < , < < 6 9 -     ",
"                  ; s w w q q q q 9 L :X1X6X1X1X1Xr.M.4X3X:X4X7X7X7X4X,X,X:X' {.8X6X6X6X6X1X1X8X5X1Xb.3 < < < , , < < 6 e ,     ",
"                . 9 s 9 q q q q q r A.1X5X8X1X5X:XP M.4X3X:X7X7X7X7X,X,X,XoXF OX6X6X5X5X5X1X1X8X7X1X.Xd < < < , , < < 6 9 7 .   ",
"                # s a w q q q q q G *X1X6X6X1X6X$XD m.4X3X:X4X7X7X4X,X,X4XS.V *X5X6X5X5X5X1X1X5X8X1X=XD < < < , < < < 6 9 9 X   ",
"                < s a q q q q q e B.1X1X8X5X>X2X.Xz m.4X3X:X7X7X7X4X,X,X4Xd.D :X5X6X5X5X5X5X1X5X8X4X,X| < < , , < < < 7 9 9 +   ",
"              X w a p q q q q q x OX1X5X8X1X:X1XA.h n.3X3X3X7X7X4X4X,X,X=XG G :X1X5X5X6X5X5X1X1X5X6X1Xf.2 < < < < < < 7 9 e $   ",
"              # s a w q 6 q 9 9 i.:X1X5X8X1X:X1Xf.d h.3X3X4X7X4X4X4X,X3X+Xj I 1X5X5X5X5X5X1X1X1X1X5X5XC.7 2 , < < < < 7 9 e ,   ",
"              < a p w q 6 q q j {.1X1X5X8X>X:X1Xy.y f.3X3X4X7X4X4X3X:X3XS.y a.1X1X5X5X5X5X1X1X1X1X5X5X`.e < , < < < < 7 9 e 7 . ",
"            . 9 a w w q 6 q q I =X>X1X5X7X:X>X-XL y a.:X3X4X7X7X3X:X:X:Xt.e b.1X1X5X5X6X5X2X1X1X1X1X1X{.y < , < < < < 7 9 e 9 X ",
"            + s a w w q 7 9 e N.>X1X1X8X5X;X>XOXB s t.:X:X4X7X4X:X:X,X+Xv y B.1X>X5X6X6X6X2X1X1X1X1X1X}.y > , , < < < 7 9 9 9 X ",
"            = s p w q q 5 9 z XX:X1X4X6X1X:X1X}.z r I -X:X7X7X7X:X:X3X].g d A.1X>X4X6X5X5X2X1X1X1X1X1X{.e > , , < < < 7 9 9 9 X ",
"            , s w w q 6 5 7 I -X>X1X5X6X1X:X1XC.h s I -X:X7X7X7X:X:X3Xh.s d A.>X:X1X5X5X5X2X1X,X1X1X1X`.7 ; , , < < < 7 q 9 9 X ",
"            q a w q q 6 6 q m.>X1X4X5X6X>X:X1Xd.g s L -X:X7X8X7X:X-X:XI r g A.:X:X1X5X5X5X5X2X1X1X1X1XF.< > , < < < < 7 q q 9 X ",
"          X a a w q q 6 5 e [.>X1X4X5X5X:X:X-XI d r K -X:X7X8X7X:X-XoXx s h F.>X:X1X6X5X1X4X1X1X1X1X1XC.< > , < < , < < 7 7 9 X ",
"          + s a q q 7 6 < k OX>X1X5X6X1X:X1XOXV g r G *X:X7X8X8X:X-XA.d s j `.>X>X1X6X5X1X1X1X1X1X>X1XV., , , < < < < < 6 7 9 X ",
"          ; s w q q 6 6 2 J =X>X1X5X6X1X:X1X|.z d r D *X:X7X8X8X7X=Xt.r d g F.>X>X,X2X5X1X1X1X>X,X>X1XN.> , < < < < < < 2 7 9 X ",
"          6 s w q q 6 6 6 f.;X>X1X5X5X>X:X>XD.j d r v +X:X8X8X8X8X+Xc y d g F.;X>X>X2X5X1X1X1X,X>X>X1Xb.> , , < < < < < < 7 q X ",
"        . 9 a w q q q 6 e F.;X,X1X5X5X:X:X:Xf.d d r x oX:X7X8X8X8XF.d d y k {.;X>X>X2X5X1X1X1X1X>X>X1Xh.; , , < < < < < < 6 7 X ",
"        X a a q q q q 6 j .X;X1X1X6X1X<X:X;X| y d r j }.:X7X7X7X4Xy.d d r v oX;X;X>X1X1X1X1X1X1X:X:X1Xd.; , , , < < < < < 6 7 X ",
"        + s p q q 6 6 5 G $X;X1X4X6X1X<X:X*XJ y d r g S.3X7X7X7X=XD d d e J #X=X;X>X1X1X1X1X1X1X:X:X1Xy.= , , , < < < < < 2 7 X ",
"        ; s w q q 6 7 6 a.-X;X1X5X5X1X:X>X+Xc r d r d B.:X8X8X8X}.j d r r r.$X-X;X1X1X2X1X1X5X1X:X:X1Xt.= > , , < < < < < 2 7 X ",
"        5 a q q 6 6 6 7 m.-X:X1X5X5X1X:X>X.Xh e y r s m.:X8X8X7Xh.g d r r t.$X-X-X1X1X1X1X1X5X1X:X:X,Xr.$ > > , < < < < < 6 6 X ",
"      X w p q 6 5 5 5 a `.-X:X1X5X5X>X:X>X].y 9 r r r f.,X7X8X:XG d r r 9 g.*X*X-X:X1X1X1X1X5X4X>X:X:XI = > > , < < < < < 2 6 X ",
"      + a p q 6 6 5 < z oX=X>X1X5X4X>X>X>XS.e 7 e e e L -X7X8X].j d s e 7 C.*X*X-X:X>X1X1X1X5X2X>X>X:X| ; ; > , < < < < < 2 2 X ",
"      $ s p q q 6 6 5 L $X&X>X1X5X1X>X:X>XN.9 2 q e e j ].8X4Xr.s r e < r `.-X-X-X:X>X1X2X1X1X2X1X:X:XI > > > , , < < < < 6 2 X ",
"      = s p q 6 6 6 6 f.=X=X>X1X5X1X>X;X>Xh.7 2 < q q e m.7XXXz s r < < h }.-X=X-X:X1X1X1X1X1X5X1X>X;XP > > > > < < < < < 2 < X "
};